# xmcd CD database file
#
# Track frame offsets:
#	150
#	24462
#	45396
#	63463
#	91340
#	110136
#	129537
#	149441
#	161221
#	174416
#	189683
#	202880
#	212725
#
# Disc length: 3007 seconds
#
# Revision: 0
# Processed by: cddbd v1.5.2PL0 Copyright (c) Steve Scherf et al.
# Submitted via: CDex 1.70beta2
#
DISCID=bd0bbd0d
DTITLE=B.B. KING - The Life Of Riley The Soundtrack Cd2
DYEAR=2012
DGENRE=Blues
TTITLE0=The Thrill Is Gone
TTITLE1=Hummingbird
TTITLE2=Caldonia
TTITLE3=Sweet Sixteen(Live In Africa, 1974)
TTITLE4=Hold On(I Feel Our Love Is Changing)
TTITLE5=When Love Comes To Town
TTITLE6=Riding With The King
TTITLE7=Messy But Good
TTITLE8=Worried Dream
TTITLE9=Precious Lord
TTITLE10=On My Word Of Honor
TTITLE11=Tired Of Your Jive
TTITLE12=Think It Over
EXTD=YEAR: 2012
EXTT0=
EXTT1=
EXTT2=
EXTT3=
EXTT4=
EXTT5=
EXTT6=
EXTT7=
EXTT8=
EXTT9=
EXTT10=
EXTT11=
EXTT12=
PLAYORDER=
